<svg width="91" height="91" viewBox="0 0 91 91" fill="none" xmlns="http://www.w3.org/2000/svg">
<path d="M48.1132 41.1382C43.4381 42.5181 38.0896 44.0604 31.1956 44.0604C28.3033 44.0604 25.4506 43.7899 22.6772 43.2488L27.4316 76.6919C27.5901 78.0989 28.541 79.3977 30.0466 80.3446C31.5521 81.2916 33.5331 81.8328 35.5933 81.8328C35.5933 81.8328 42.3685 82.0765 44.6266 82.0765C47.0437 82.0765 54.3337 81.8328 54.3337 81.8328C56.3939 81.8328 58.3748 81.3187 59.8805 80.3446C61.3859 79.3977 62.3369 78.0989 62.4955 76.6919L67.6064 39.7583C65.3083 39.217 63.0106 38.8654 60.4353 38.8654C55.9184 38.8654 52.3129 39.9206 48.1132 41.1382Z" fill="#E9BE91"/>
<path d="M89.6357 23.7943L88.9223 21.332C88.2885 19.1133 86.8224 17.0028 83.4944 16.2181C82.4245 15.9746 81.1964 15.8393 80.404 15.3252C79.572 14.7841 79.3344 13.9724 79.1362 13.2148C78.7797 11.8077 78.4628 10.4007 78.1063 8.99375C77.7891 7.77617 77.5515 6.42329 76.7592 5.34099C75.6893 3.85281 73.5101 2.98698 71.331 2.41876C70.2218 2.14818 69.0729 1.90466 67.9237 1.6882C62.4959 0.71413 56.7905 0.36238 51.2041 0.145919C44.5084 -0.097599 37.7728 -0.043484 31.0771 0.36238C26.085 0.660014 20.8551 1.03882 16.1403 2.22934C14.397 2.66228 12.6142 3.17637 11.3067 4.09633C9.68227 5.20569 9.16721 6.96443 10.3558 8.34437C11.1878 9.3455 12.6142 10.049 14.1197 10.509C16.0611 11.1042 18.1214 11.5642 20.2212 11.8619C26.085 12.7548 32.1072 13.0795 38.09 13.2418C44.7064 13.4312 51.323 13.2689 57.9394 12.8089C59.564 12.6736 61.1884 12.5383 62.8127 12.376C64.7146 12.1866 65.9428 10.4549 65.3881 9.29139C64.7147 7.85734 62.8921 7.31618 60.8715 7.53265C60.5543 7.5597 60.2771 7.58676 59.9602 7.61381L59.762 7.64087C59.0489 7.69498 58.3752 7.74912 57.6622 7.80323C56.2357 7.91145 54.8096 7.99262 53.3436 8.07381C50.1345 8.23614 46.8855 8.29026 43.6368 8.29026C40.467 8.29026 37.2973 8.23614 34.1279 8.07381C32.6619 8.01967 31.2356 7.93851 29.8093 7.83028C29.1357 7.77617 28.5018 7.72204 27.8679 7.66793L27.234 7.61381H27.1151L26.4812 7.5597C25.1737 7.42442 23.8662 7.26207 22.5588 7.07268C22.4399 7.04562 22.3211 6.99149 22.2418 6.93737C22.1626 6.88326 22.123 6.77504 22.123 6.69387C22.123 6.61268 22.1626 6.50446 22.2418 6.45035C22.3211 6.39623 22.4399 6.3421 22.5588 6.31505H22.5984C23.7078 6.15271 24.8567 6.01743 26.0057 5.88213C26.4019 5.82802 26.7585 5.80096 27.1547 5.77391C27.8679 5.74685 28.5811 5.66568 29.2942 5.58449C35.4751 5.15158 41.6952 4.98922 47.9157 5.12452C50.9269 5.17863 53.938 5.31391 56.9491 5.50333C57.5829 5.55744 58.2566 5.58449 58.8903 5.6386C59.1282 5.66566 59.3658 5.69274 59.643 5.69274L60.1582 5.74685C61.6242 5.88213 63.0507 6.07154 64.5164 6.28799C66.6559 6.61268 69.3898 6.72093 70.3407 8.29026C70.6576 8.80436 70.7765 9.3455 70.9348 9.88666L71.1331 10.5631V10.5902C71.6482 12.1866 72.1233 13.7829 72.6385 15.3794C72.6781 15.4876 72.6781 15.6229 72.6385 15.7311C72.5988 15.8393 72.5199 15.9746 72.4406 16.0558C72.3216 16.164 72.2026 16.2452 72.0444 16.2993C71.8858 16.3534 71.7272 16.4075 71.5689 16.4075L71.2517 16.4346L70.9348 16.4617C69.9839 16.5428 68.9936 16.624 68.0426 16.7052C66.1407 16.8405 64.2392 16.9758 62.3373 17.084C58.5338 17.3004 54.77 17.4357 50.9665 17.5169C49.025 17.544 47.0837 17.571 45.1422 17.571C37.4163 17.571 29.73 17.2734 22.0834 16.6511C21.2513 16.5969 20.4193 16.5158 19.5873 16.4346C20.2212 16.4887 19.1119 16.3805 18.9137 16.3805C18.3987 16.3264 17.844 16.2722 17.3289 16.2181C15.5461 16.0287 13.8028 15.8123 12.0198 15.6229C9.88036 15.3794 7.85974 15.5146 5.91835 16.2181C4.33355 16.8134 3.06572 17.7063 2.23369 18.8157C1.40167 19.9791 1.16395 21.2779 0.767751 22.5225C0.411171 23.7943 -0.183131 25.1471 0.0545896 26.4459C0.53003 29.2328 3.38267 31.5058 7.50318 32.0198C11.3859 32.5068 15.2687 32.8856 19.1911 33.2103C34.5241 34.4821 50.0552 34.6444 65.4277 33.6702C66.6955 33.5892 67.9237 33.508 69.1915 33.3997C69.5877 33.3726 69.9839 33.3997 70.3407 33.4809C70.6972 33.5621 71.0538 33.7244 71.331 33.9139C71.6085 34.1032 71.8065 34.3197 71.9651 34.5902C72.084 34.8337 72.163 35.1042 72.1233 35.375L71.7272 37.9725C70.9348 43.1946 70.1425 48.4167 69.3898 53.6658C68.5578 59.1587 67.7654 64.6513 66.9334 70.1439C66.6955 71.6862 66.458 73.2286 66.2201 74.7707C65.9825 76.286 65.9825 77.8554 65.5466 79.3706C64.8729 81.7247 62.5355 83.1858 59.1282 83.7269C55.9982 84.2138 52.7888 84.4573 49.5797 84.4844C46.0138 84.4844 42.4479 84.4034 38.8824 84.4034C35.0789 84.4305 30.4036 84.1868 27.4717 82.2387C24.8964 80.5341 24.5398 77.8825 24.1832 75.5826C23.7078 72.5521 23.2323 69.4945 22.7965 66.4642L20.2212 49.5531L18.5572 38.5949C18.5175 38.4053 18.5175 38.2431 18.4779 38.0535C18.2798 36.7549 16.9327 35.4831 14.7933 35.5373C12.9707 35.5914 10.9105 36.6466 11.1086 38.0535L12.3368 46.171L14.9121 62.9467C15.6253 67.7087 16.3781 72.4709 17.0912 77.2601C17.2497 78.1801 17.3686 79.1001 17.5271 79.993C18.3194 84.9987 23.9059 87.6772 30.8394 88.4349C34.8806 88.8677 39.001 88.976 43.1216 89.0031C48.3912 89.0573 53.7001 89.1924 58.8507 88.5432C66.4976 87.5962 72.2423 84.1058 73.0743 78.6671C73.3122 77.0976 73.5498 75.5284 73.7877 73.9861C74.58 68.8182 75.3327 63.6501 76.1251 58.4551L78.6607 41.5442L79.8099 33.8056C79.8493 33.4267 80.0871 33.0479 80.4833 32.7773C80.8795 32.5068 81.355 32.2904 81.9097 32.2362C84.0889 31.9386 86.1887 31.4516 87.7338 30.3152C90.0318 28.5294 90.5073 26.1754 89.6357 23.7943ZM7.30506 25.4718C7.34467 25.4718 7.26544 25.6613 7.26544 25.7423C7.22582 25.6072 7.22582 25.4718 7.30506 25.4718ZM7.50318 26.5811C7.50318 26.5811 7.58241 26.6082 7.62203 26.6894C7.5428 26.6353 7.50318 26.5811 7.50318 26.5811ZM7.70127 26.7706C7.82012 26.9329 7.7805 26.8787 7.70127 26.7706ZM81.5926 26.6623C80.8002 27.1764 79.6117 27.4201 78.4628 27.5282C65.3484 28.8541 51.9964 29.5304 38.7237 29.2328C29.215 29.0163 19.825 28.2859 10.3954 27.393C9.48418 27.3118 8.49365 27.1764 7.85974 26.7165C6.67115 25.8507 7.26544 24.0919 7.58241 23.0097C7.85974 22.0355 8.41441 20.7367 10.1181 20.6015C12.733 20.385 15.8234 21.1426 18.3987 21.4132C21.5287 21.7379 24.6983 22.0085 27.8283 22.1978C41.299 23.0368 55.0472 22.9014 68.4388 21.6838C70.8952 21.4673 73.3122 21.1967 75.7686 20.8991C77.9477 20.6285 80.3247 20.1415 81.6322 21.6567C82.5435 22.712 82.6624 24.0919 82.5038 25.2825C82.5038 25.8236 82.1473 26.3105 81.5926 26.6623Z" fill="#E8E8E8"/>
</svg>
