<svg width="180" height="180" viewBox="0 0 180 180" fill="none" xmlns="http://www.w3.org/2000/svg">
<rect width="180" height="180" rx="20" fill="#161616"/>
<path d="M32.6401 117.322H50.6187V135.471L46.0898 140H43.0649V122.261H32.6401V117.322ZM37.7329 135.471H41.8687V140H34.4346L29.8887 135.471V130.498H37.7329V135.471ZM61.4536 135.386H64.2905V140H58.48L53.8828 135.471V121.851L58.48 117.322H64.2905V121.919H61.4536V135.386ZM68.375 121.919H65.4868V117.322H71.3486L75.9287 121.851V135.471L71.3486 140H65.4868V135.386H68.375V121.919ZM79.4321 140V117.322H86.9858V140H79.4321ZM88.1479 136.787V125.764L93.4458 117.339L101.307 117.322L88.1479 136.787ZM101.666 140H93.4971L90.9336 134.719L95.4111 128.003L101.666 140ZM110.399 130.686V140H102.845V117.322H110.399V126.311H117.628V130.686H110.399ZM111.595 121.714V117.322H123.404V123.884H116.295V121.714H111.595ZM111.595 140V135.471H115.851V133.198H123.404V140H111.595ZM141.058 140V131.506H131.249L126.703 126.96V121.851L131.249 117.322H133.812V125.371H144.237L148.629 129.917V135.471L144.1 140H141.058ZM135.008 121.406V117.322H144.083L148.014 121.27V123.679H141.058V121.406H135.008ZM126.703 133.198H134.256V135.898H139.862V140H130.514L126.703 135.471V133.198Z" fill="white"/>
<path d="M48.6865 91H40.9521L29.2627 79.3545V44.3301L40.9521 32.6846H48.6865V91ZM51.7627 44.3301V32.6846H72.4609L84.1064 44.3301V56.0635H64.6826V44.3301H51.7627ZM51.7627 91V79.3545H64.6826V70.8291H84.1064V79.3545L72.4609 91H51.7627ZM149.409 91H128.755L93.4229 32.6846H113.945L149.409 91ZM93.4229 91V38.2217L110.342 65.9512V91H93.4229ZM149.409 32.6846V85.4629L132.49 57.6016V32.6846H149.409Z" fill="white"/>
</svg>
